<svg xmlns="http://www.w3.org/2000/svg" fill="none" viewBox="0 0 342 236">
  <path fill="#1D1D1E" d="M0 0h342v236H0z"/>
  <path fill="#F2F2F2" d="M51.195 76.85h7.085c1.3867 0 2.3617-.2817 2.925-.845.6067-.6067.91-1.6033.91-2.99V53.19c0-1.3867-.3033-2.3617-.91-2.925-.5633-.6067-1.5383-.91-2.925-.91h-7.085c-.4767 0-.715.2383-.715.715v26.065c0 .4767.2383.715.715.715zm-8.97 5.785V43.57c0-.91.455-1.365 1.365-1.365h16.055c3.38 0 6.0017.9317 7.865 2.795 1.9067 1.82 2.86 4.42 2.86 7.8v20.605c0 3.38-.9533 6.0017-2.86 7.865-1.8633 1.82-4.485 2.73-7.865 2.73H43.59c-.91 0-1.365-.455-1.365-1.365zM100.773 84H79.5177c-.91 0-1.365-.455-1.365-1.365V43.57c0-.91.455-1.365 1.365-1.365h21.2553c.866 0 1.3.455 1.3 1.365v4.42c0 .91-.434 1.365-1.3 1.365H87.1877c-.52 0-.78.2383-.78.715v8.45c0 .4767.26.715.78.715h11.115c.91 0 1.365.455 1.365 1.365v4.42c0 .91-.455 1.365-1.365 1.365h-11.115c-.52 0-.78.2383-.78.715v9.035c0 .4767.26.715.78.715h13.5853c.866 0 1.3.455 1.3 1.365v4.42c0 .91-.434 1.365-1.3 1.365zm-51.658 55H43.59c-.91 0-1.365-.455-1.365-1.365V98.57c0-.91.455-1.365 1.365-1.365h5.525c.91 0 1.365.455 1.365 1.365v18.525h.13c.3467-1.04 1.0183-2.383 2.015-4.03l9.88-14.495c.5633-.91 1.4083-1.365 2.535-1.365h6.37c.4767 0 .7583.1517.845.455.13.26.0217.6067-.325 1.04l-12.35 17.095 13.78 21.58c.3033.52.3467.932.13 1.235-.1733.26-.5633.39-1.17.39h-4.745c-1.5167 0-2.535-.455-3.055-1.365l-9.945-15.925-4.095 4.81v11.115c0 .91-.455 1.365-1.365 1.365zm40.7301-7.15h4.615c1.3867 0 2.3617-.282 2.925-.845.6067-.607.91-1.603.91-2.99V108.19c0-1.387-.3033-2.362-.91-2.925-.5633-.607-1.5383-.91-2.925-.91h-4.615c-1.3866 0-2.3616.303-2.925.91-.5633.563-.845 1.538-.845 2.925v19.825c0 1.387.2817 2.383.845 2.99.5634.563 1.5384.845 2.925.845zm5.98 7.15h-7.28c-3.4233 0-6.0666-.91-7.93-2.73-1.8633-1.82-2.795-4.442-2.795-7.865V107.8c0-3.423.9317-6.045 2.795-7.865 1.8634-1.82 4.5067-2.73 7.93-2.73h7.28c3.4234 0 6.0669.91 7.9299 2.73 1.863 1.82 2.795 4.442 2.795 7.865v20.605c0 3.423-.932 6.045-2.795 7.865-1.863 1.82-4.5065 2.73-7.9299 2.73zm29.8839-7.15h4.615c1.387 0 2.362-.282 2.925-.845.607-.607.91-1.603.91-2.99V108.19c0-1.387-.303-2.362-.91-2.925-.563-.607-1.538-.91-2.925-.91h-4.615c-1.386 0-2.361.303-2.925.91-.563.563-.845 1.538-.845 2.925v19.825c0 1.387.282 2.383.845 2.99.564.563 1.539.845 2.925.845zm5.98 7.15h-7.28c-3.423 0-6.066-.91-7.93-2.73-1.863-1.82-2.795-4.442-2.795-7.865V107.8c0-3.423.932-6.045 2.795-7.865 1.864-1.82 4.507-2.73 7.93-2.73h7.28c3.424 0 6.067.91 7.93 2.73 1.864 1.82 2.795 4.442 2.795 7.865v20.605c0 3.423-.931 6.045-2.795 7.865-1.863 1.82-4.506 2.73-7.93 2.73zm41.26 0h-21.385c-.91 0-1.365-.455-1.365-1.365V98.57c0-.91.455-1.365 1.365-1.365h5.525c.91 0 1.365.455 1.365 1.365v32.5c0 .477.26.715.78.715h13.715c.866 0 1.3.477 1.3 1.43v4.42c0 .91-.434 1.365-1.3 1.365zm29.069 0h-21.255c-.91 0-1.365-.455-1.365-1.365V98.57c0-.91.455-1.365 1.365-1.365h21.255c.867 0 1.3.455 1.3 1.365v4.42c0 .91-.433 1.365-1.3 1.365h-13.585c-.52 0-.78.238-.78.715v8.45c0 .477.26.715.78.715h11.115c.91 0 1.365.455 1.365 1.365v4.42c0 .91-.455 1.365-1.365 1.365h-11.115c-.52 0-.78.238-.78.715v9.035c0 .477.26.715.78.715h13.585c.867 0 1.3.455 1.3 1.365v4.42c0 .91-.433 1.365-1.3 1.365zM59.385 194H52.3c-3.4233 0-6.0667-.91-7.93-2.73-1.8633-1.82-2.795-4.442-2.795-7.865V162.8c0-3.423.9317-6.045 2.795-7.865 1.8633-1.82 4.5067-2.73 7.93-2.73h7.085c3.38 0 6.0017.932 7.865 2.795 1.9067 1.82 2.86 4.42 2.86 7.8v3.055c0 .953-.4767 1.43-1.43 1.43h-5.46c-.91 0-1.365-.477-1.365-1.43v-2.665c0-1.387-.3033-2.362-.91-2.925-.5633-.607-1.5383-.91-2.925-.91H53.6c-1.3433 0-2.3183.303-2.925.91-.5633.563-.845 1.538-.845 2.925v19.825c0 1.387.2817 2.383.845 2.99.6067.563 1.5817.845 2.925.845h4.42c1.3867 0 2.3617-.282 2.925-.845.6067-.607.91-1.603.91-2.99v-2.665c0-.953.455-1.43 1.365-1.43h5.46c.9533 0 1.43.477 1.43 1.43v3.055c0 3.38-.9533 6.002-2.86 7.865-1.8633 1.82-4.485 2.73-7.865 2.73zm40.4356 0h-21.255c-.91 0-1.365-.455-1.365-1.365V153.57c0-.91.455-1.365 1.365-1.365h21.255c.8664 0 1.3004.455 1.3004 1.365v4.42c0 .91-.434 1.365-1.3004 1.365h-13.585c-.52 0-.78.238-.78.715v8.45c0 .477.26.715.78.715h11.115c.91 0 1.365.455 1.365 1.365v4.42c0 .91-.455 1.365-1.365 1.365h-11.115c-.52 0-.78.238-.78.715v9.035c0 .477.26.715.78.715h13.585c.8664 0 1.3004.455 1.3004 1.365v4.42c0 .91-.434 1.365-1.3004 1.365zm15.2434 0h-5.395c-.91 0-1.365-.455-1.365-1.365V153.57c0-.91.455-1.365 1.365-1.365h4.875c.91 0 1.517.303 1.82.91l13.13 24.635h.26v-24.18c0-.91.455-1.365 1.365-1.365h5.395c.91 0 1.365.455 1.365 1.365v39.065c0 .91-.455 1.365-1.365 1.365h-4.745c-.953 0-1.647-.433-2.08-1.3l-13-24.18h-.26v24.115c0 .91-.455 1.365-1.365 1.365zm44.198 0h-5.46c-.954 0-1.43-.455-1.43-1.365V160.07c0-.477-.239-.715-.715-.715h-7.41c-.91 0-1.365-.455-1.365-1.365v-4.42c0-.91.455-1.365 1.365-1.365h24.57c.91 0 1.365.455 1.365 1.365v4.42c0 .91-.455 1.365-1.365 1.365h-7.41c-.52 0-.78.238-.78.715v32.565c0 .91-.455 1.365-1.365 1.365zm22.773 0h-5.525c-.91 0-1.365-.455-1.365-1.365V153.57c0-.91.455-1.365 1.365-1.365h15.47c3.38 0 6.023.932 7.93 2.795s2.86 4.485 2.86 7.865v5.07c0 4.897-1.928 8.147-5.785 9.75v.26l6.955 14.495c.39 1.04.022 1.56-1.105 1.56h-5.265c-.78 0-1.343-.087-1.69-.26-.347-.173-.628-.542-.845-1.105l-6.5-14.04h-4.355c-.52 0-.78.238-.78.715v13.325c0 .91-.455 1.365-1.365 1.365zm2.08-22.035h6.37c1.387 0 2.405-.282 3.055-.845.65-.607.975-1.56.975-2.86v-5.07c0-1.343-.325-2.318-.975-2.925-.65-.607-1.668-.91-3.055-.91h-6.37c-.477 0-.715.238-.715.715v11.18c0 .477.238.715.715.715zM215.047 194h-6.24c-.78 0-1.04-.455-.78-1.365l10.27-39.065c.303-.91.953-1.365 1.95-1.365h8.645c1.083 0 1.733.455 1.95 1.365l10.27 39.065c.26.91 0 1.365-.78 1.365h-6.24c-.477 0-.802-.087-.975-.26-.174-.217-.304-.585-.39-1.105l-1.82-7.15h-12.675l-1.82 7.15c-.087.52-.239.888-.455 1.105-.174.173-.477.26-.91.26zm9.425-33.93l-4.68 18.785h9.62l-4.68-18.785h-.26zM269.623 194h-21.385c-.91 0-1.365-.455-1.365-1.365V153.57c0-.91.455-1.365 1.365-1.365h5.525c.91 0 1.365.455 1.365 1.365v32.5c0 .477.26.715.78.715h13.715c.867 0 1.3.477 1.3 1.43v4.42c0 .91-.433 1.365-1.3 1.365zm29.07 0h-21.255c-.91 0-1.365-.455-1.365-1.365V153.57c0-.91.455-1.365 1.365-1.365h21.255c.866 0 1.3.455 1.3 1.365v4.42c0 .91-.434 1.365-1.3 1.365h-13.585c-.52 0-.78.238-.78.715v8.45c0 .477.26.715.78.715h11.115c.91 0 1.365.455 1.365 1.365v4.42c0 .91-.455 1.365-1.365 1.365h-11.115c-.52 0-.78.238-.78.715v9.035c0 .477.26.715.78.715h13.585c.866 0 1.3.455 1.3 1.365v4.42c0 .91-.434 1.365-1.3 1.365z"/>
</svg>