<svg xmlns="http://www.w3.org/2000/svg" width="327" height="57" fill="none" viewBox="0 0 327 57"><path fill="#fff" d="M269.287 37.3667H273.118C273.578 37.3667 273.976 37.5356 274.311 37.8733C274.646 38.2111 274.813 38.6122 274.813 39.0767V43.2567C274.813 43.7211 274.646 44.1222 274.311 44.46C273.976 44.7978 273.578 44.9667 273.118 44.9667H268.47C264.493 44.9667 261.458 43.985 259.364 42.0217C257.271 40.0583 256.224 37.1345 256.224 33.25V19.6333H252.079C251.619 19.6333 251.221 19.4644 250.886 19.1267C250.551 18.7889 250.384 18.3878 250.384 17.9233V13.7433C250.384 13.2789 250.551 12.8778 250.886 12.54C251.221 12.2022 251.619 12.0333 252.079 12.0333H256.224V1.70999C256.224 1.24554 256.392 0.844434 256.727 0.506678C257.062 0.168893 257.459 0 257.92 0H262.693C263.153 0 263.551 0.168893 263.886 0.506678C264.221 0.844434 264.388 1.24554 264.388 1.70999V12.0333H272.49C272.95 12.0333 273.348 12.2022 273.683 12.54C274.018 12.8778 274.185 13.2789 274.185 13.7433V17.9233C274.185 18.3878 274.018 18.7889 273.683 19.1267C273.348 19.4644 272.95 19.6333 272.49 19.6333H264.388V33.06C264.388 34.4533 264.755 35.5194 265.487 36.2583C266.22 36.9972 267.486 37.3667 269.287 37.3667Z"/><path fill="#fff" fill-rule="evenodd" d="M23.55 13.585C23.55 13.1205 23.7175 12.7194 24.0524 12.3817C24.3874 12.0439 24.7851 11.875 25.2456 11.875H30.0184C30.479 11.875 30.8767 12.0439 31.2116 12.3817C31.5466 12.7194 31.714 13.1205 31.714 13.585V43.2566C31.714 43.7211 31.5466 44.1222 31.2116 44.46C30.8767 44.7978 30.479 44.9667 30.0184 44.9667H25.2456C24.7851 44.9667 24.3874 44.7978 24.0524 44.46C23.7175 44.1222 23.55 43.7211 23.55 43.2566V41.8C22.6708 42.8133 21.4567 43.7 19.9076 44.46C18.3585 45.22 16.4118 45.6 14.0672 45.6C11.3459 45.6 8.94903 44.9139 6.87661 43.5417C4.80419 42.1694 3.18188 40.3539 2.0096 38.095C0.837336 35.8361 0.188412 33.3767 0.0627944 30.7167L0 28.5L0.0627944 26.2833C0.188412 23.6233 0.837336 21.1639 2.0096 18.905C3.18188 16.6461 4.80419 14.8305 6.87661 13.4583C8.94903 12.0861 11.3459 11.4 14.0672 11.4C16.3699 11.4 18.2958 11.78 19.8448 12.54C21.3939 13.3 22.6289 14.1867 23.55 15.2V13.585ZM15.9512 38C18.0445 38 19.782 37.3772 21.1636 36.1317C22.5452 34.8861 23.3407 33.1445 23.55 30.9067C23.6337 30.0622 23.6756 29.26 23.6756 28.5C23.6756 27.74 23.6337 26.9378 23.55 26.0934C23.3407 23.94 22.5348 22.2195 21.1322 20.9317C19.7297 19.6439 18.0027 19 15.9512 19C13.816 19 12.0576 19.6333 10.676 20.9C9.29439 22.1667 8.478 24.1089 8.22679 26.7267C8.18492 27.1489 8.164 27.74 8.164 28.5C8.164 31.7089 8.86526 34.0945 10.2678 35.6567C11.6703 37.2189 13.5648 38 15.9512 38Z" clip-rule="evenodd"/><path fill="#fff" fill-rule="evenodd" d="M48.5444 55.29C48.5444 55.7544 48.377 56.1555 48.0421 56.4933C47.7071 56.8311 47.3094 57 46.8488 57H42.076C41.6155 57 41.2178 56.8311 40.8829 56.4933C40.5479 56.1555 40.3804 55.7544 40.3804 55.29V13.7433C40.3804 13.2789 40.5479 12.8778 40.8829 12.54C41.2178 12.2022 41.6155 12.0333 42.076 12.0333H46.8488C47.3094 12.0333 47.7071 12.2022 48.0421 12.54C48.377 12.8778 48.5444 13.2789 48.5444 13.7433V15.2C49.4236 14.1867 50.6378 13.3 52.1869 12.54C53.7359 11.78 55.6827 11.4 58.0273 11.4C60.7486 11.4 63.1455 12.0861 65.2179 13.4583C67.2903 14.8305 68.9126 16.6461 70.0849 18.905C71.2572 21.1639 71.9061 23.6233 72.0317 26.2833C72.0735 26.7055 72.0945 27.4444 72.0945 28.5C72.0945 29.5555 72.0735 30.2944 72.0317 30.7167C71.9061 33.3767 71.2572 35.8361 70.0849 38.095C68.9126 40.3539 67.2903 42.1694 65.2179 43.5417C63.1455 44.9139 60.7486 45.6 58.0273 45.6C55.7246 45.6 53.7987 45.22 52.2497 44.46C50.7006 43.7 49.4655 42.8133 48.5444 41.8V55.29ZM50.9309 20.8683C52.3125 19.6228 54.0499 19 56.1433 19C58.5297 19 60.4346 19.7811 61.858 21.3434C63.2815 22.9056 63.9933 25.2911 63.9933 28.5C63.9933 28.8378 63.9514 29.4289 63.8677 30.2733C63.6165 32.8911 62.8001 34.8333 61.4185 36.1C60.0369 37.3667 58.2785 38 56.1433 38C54.0918 38 52.3648 37.3561 50.9622 36.0683C49.5597 34.7806 48.7538 33.06 48.5444 30.9067C48.5026 30.4844 48.4816 29.6822 48.4816 28.5C48.4816 27.3178 48.5026 26.5156 48.5444 26.0934C48.7538 23.8556 49.5492 22.1139 50.9309 20.8683Z" clip-rule="evenodd"/><path fill="#fff" fill-rule="evenodd" d="M87.4177 55.29C87.4177 55.7544 87.2502 56.1555 86.9153 56.4933C86.5804 56.8311 86.1826 57 85.7221 57H80.9493C80.4887 57 80.091 56.8311 79.7561 56.4933C79.4212 56.1555 79.2537 55.7544 79.2537 55.29V13.7433C79.2537 13.2789 79.4212 12.8778 79.7561 12.54C80.091 12.2022 80.4887 12.0333 80.9493 12.0333H85.7221C86.1826 12.0333 86.5804 12.2022 86.9153 12.54C87.2502 12.8778 87.4177 13.2789 87.4177 13.7433V15.2C88.2969 14.1867 89.511 13.3 91.0601 12.54C92.6092 11.78 94.556 11.4 96.9005 11.4C99.6219 11.4 102.019 12.0861 104.091 13.4583C106.164 14.8305 107.786 16.6461 108.958 18.905C110.13 21.1639 110.779 23.6233 110.905 26.2833C110.947 26.7055 110.968 27.4444 110.968 28.5C110.968 29.5555 110.947 30.2944 110.905 30.7167C110.779 33.3767 110.13 35.8361 108.958 38.095C107.786 40.3539 106.164 42.1694 104.091 43.5417C102.019 44.9139 99.6219 45.6 96.9005 45.6C94.5978 45.6 92.672 45.22 91.1229 44.46C89.5738 43.7 88.3388 42.8133 87.4177 41.8V55.29ZM89.8041 20.8683C91.1857 19.6228 92.9232 19 95.0165 19C97.4029 19 99.3078 19.7811 100.731 21.3434C102.155 22.9056 102.867 25.2911 102.867 28.5C102.867 28.8378 102.825 29.4289 102.741 30.2733C102.49 32.8911 101.673 34.8333 100.292 36.1C98.9101 37.3667 97.1517 38 95.0165 38C92.965 38 91.238 37.3561 89.8355 36.0683C88.433 34.7806 87.627 33.06 87.4177 30.9067C87.3758 30.4844 87.3549 29.6822 87.3549 28.5C87.3549 27.3178 87.3758 26.5156 87.4177 26.0934C87.627 23.8556 88.4225 22.1139 89.8041 20.8683Z" clip-rule="evenodd"/><path fill="#fff" d="M134.392 11.4C139.249 11.4 142.724 13.1944 144.817 16.7833C145.906 15.1366 147.402 13.8278 149.307 12.8566C151.212 11.8855 153.107 11.4 154.991 11.4C159.428 11.4 162.621 12.7616 164.568 15.485C166.514 18.2083 167.488 21.7866 167.488 26.22V43.2566C167.488 43.7211 167.32 44.1222 166.985 44.46C166.65 44.7978 166.253 44.9667 165.792 44.9667H161.019C160.559 44.9667 160.161 44.7978 159.826 44.46C159.491 44.1222 159.324 43.7211 159.324 43.2566V26.5367C159.324 23.7922 158.8 21.8183 157.754 20.615C156.707 19.4116 155.158 18.81 153.107 18.81C151.306 18.81 149.831 19.4011 148.679 20.5833C147.528 21.7656 146.931 23.6444 146.889 26.22V43.2566C146.889 43.7211 146.722 44.1222 146.387 44.46C146.052 44.7978 145.654 44.9667 145.194 44.9667H140.421C139.96 44.9667 139.563 44.7978 139.228 44.46C138.893 44.1222 138.725 43.7211 138.725 43.2566V26.5367C138.725 23.7922 138.202 21.8183 137.155 20.615C136.109 19.4116 134.56 18.81 132.508 18.81C130.666 18.81 129.169 19.4327 128.018 20.6783C126.867 21.9239 126.291 23.8767 126.291 26.5367V43.2566C126.291 43.7211 126.123 44.1222 125.789 44.46C125.454 44.7978 125.056 44.9667 124.595 44.9667H119.823C119.362 44.9667 118.964 44.7978 118.629 44.46C118.294 44.1222 118.127 43.7211 118.127 43.2566V13.7433C118.127 13.2789 118.294 12.8778 118.629 12.54C118.964 12.2022 119.362 12.0333 119.823 12.0333H124.595C125.056 12.0333 125.454 12.2022 125.789 12.54C126.123 12.8778 126.291 13.2789 126.291 13.7433V15.2C127.296 13.9755 128.51 13.0361 129.933 12.3817C131.357 11.7272 132.843 11.4 134.392 11.4Z"/><path fill="#fff" fill-rule="evenodd" d="M198.715 12.3817C198.38 12.7194 198.213 13.1205 198.213 13.585V15.2C197.292 14.1867 196.057 13.3 194.508 12.54C192.958 11.78 191.033 11.4 188.73 11.4C186.009 11.4 183.612 12.0861 181.539 13.4583C179.467 14.8305 177.845 16.6461 176.672 18.905C175.5 21.1639 174.851 23.6233 174.726 26.2833L174.663 28.5L174.726 30.7167C174.851 33.3767 175.5 35.8361 176.672 38.095C177.845 40.3539 179.467 42.1694 181.539 43.5417C183.612 44.9139 186.009 45.6 188.73 45.6C191.074 45.6 193.021 45.22 194.57 44.46C196.119 43.7 197.334 42.8133 198.213 41.8V43.2566C198.213 43.7211 198.38 44.1222 198.715 44.46C199.05 44.7978 199.448 44.9667 199.908 44.9667H204.681C205.142 44.9667 205.539 44.7978 205.874 44.46C206.209 44.1222 206.377 43.7211 206.377 43.2566V13.585C206.377 13.1205 206.209 12.7194 205.874 12.3817C205.539 12.0439 205.142 11.875 204.681 11.875H199.908C199.448 11.875 199.05 12.0439 198.715 12.3817ZM190.614 38C192.707 38 194.445 37.3772 195.826 36.1317C197.208 34.8861 198.003 33.1445 198.213 30.9067C198.296 30.0622 198.338 29.26 198.338 28.5C198.338 27.74 198.296 26.9378 198.213 26.0934C198.003 23.94 197.197 22.2195 195.795 20.9317C194.392 19.6439 192.665 19 190.614 19C188.479 19 186.72 19.6333 185.339 20.9C183.957 22.1667 183.141 24.1089 182.89 26.7267C182.848 27.1489 182.827 27.74 182.827 28.5C182.827 31.7089 183.528 34.0945 184.931 35.6567C186.333 37.2189 188.228 38 190.614 38Z" clip-rule="evenodd"/><path fill="#fff" d="M238.891 44.9667H243.664C244.125 44.9667 244.523 44.7978 244.857 44.46C245.192 44.1222 245.36 43.7211 245.36 43.2566V26.22C245.36 21.8288 244.303 18.2611 242.188 15.5166C240.074 12.7722 236.652 11.4 231.921 11.4C228.404 11.4 225.389 12.6667 222.877 15.2V13.7433C222.877 13.2789 222.71 12.8778 222.375 12.54C222.04 12.2022 221.642 12.0333 221.182 12.0333H216.409C215.949 12.0333 215.551 12.2022 215.216 12.54C214.881 12.8778 214.713 13.2789 214.713 13.7433V43.2566C214.713 43.7211 214.881 44.1222 215.216 44.46C215.551 44.7978 215.949 44.9667 216.409 44.9667H221.182C221.642 44.9667 222.04 44.7978 222.375 44.46C222.71 44.1222 222.877 43.7211 222.877 43.2566V27.17C222.877 24.6366 223.526 22.61 224.824 21.09C226.122 19.57 227.86 18.81 230.037 18.81C232.381 18.81 234.161 19.5489 235.375 21.0267C236.589 22.5044 237.196 24.5522 237.196 27.17V43.2566C237.196 43.7211 237.363 44.1222 237.698 44.46C238.033 44.7978 238.431 44.9667 238.891 44.9667Z"/><path fill="#fff" d="M282.663 44.9667H287.436C287.896 44.9667 288.294 44.7978 288.629 44.46C288.964 44.1222 289.132 43.7211 289.132 43.2567V1.70999C289.132 1.24554 288.964 0.844434 288.629 0.506678C288.294 0.168893 287.896 0 287.436 0H282.663C282.203 0 281.805 0.168893 281.47 0.506678C281.135 0.844434 280.968 1.24554 280.968 1.70999V43.2567C280.968 43.7211 281.135 44.1222 281.47 44.46C281.805 44.7978 282.203 44.9667 282.663 44.9667Z"/><path fill="#fff" fill-rule="evenodd" d="M325.085 19.4433C326.362 21.8922 327 24.5733 327 27.4867V30.3366C327 30.8011 326.833 31.2022 326.498 31.54C326.163 31.8778 325.765 32.0466 325.304 32.0466H304.329C304.329 33.8622 305.041 35.3083 306.464 36.385C307.888 37.4617 309.583 38 311.551 38C313.854 38 315.633 37.5144 316.889 36.5433C317.35 36.2055 317.727 35.9733 318.02 35.8466C318.313 35.72 318.71 35.6566 319.213 35.6566H324.237C324.697 35.6566 325.095 35.815 325.43 36.1317C325.765 36.4483 325.932 36.8178 325.932 37.24C325.932 38.1267 325.357 39.2455 324.205 40.5966C323.054 41.9478 321.39 43.1194 319.213 44.1117C317.036 45.1039 314.482 45.6 311.551 45.6C308.453 45.6 305.742 44.8822 303.419 43.4467C301.095 42.0111 299.305 40.0055 298.049 37.43C296.793 34.8544 296.165 31.8778 296.165 28.5C296.165 25.3333 296.793 22.4517 298.049 19.855C299.305 17.2583 301.105 15.2 303.45 13.68C305.795 12.16 308.495 11.4 311.551 11.4C314.607 11.4 317.308 12.1283 319.652 13.585C321.997 15.0417 323.808 16.9944 325.085 19.4433ZM311.551 19C315.738 19 318.061 20.9422 318.522 24.8267H304.329C304.497 23.3067 305.198 21.9556 306.433 20.7734C307.668 19.5911 309.374 19 311.551 19Z" clip-rule="evenodd"/></svg>