<svg xmlns="http://www.w3.org/2000/svg" viewBox="0 0 280 108.39">
    <defs>
        <style>.cls-1{fill:#fff;}.cls-2{fill:#000000;}</style>
    </defs>
    <g id="Laag_2" data-name="Laag 2">
        <g id="Laag_1-2" data-name="Laag 1">
            <rect class="cls-1" x="2.62" y="6.97" width="265.73" height="85.41" />
            <path class="cls-2" d="M271,9V0H0V99.35H9v9H280V9Zm-9,0V90.32H9V9H261.94" />
            <path class="cls-2" d="M40.75,64.64,31.47,51.82V64.64h-8.7V24h8.7v24.3l8.7-12.7H50.31L39.76,50.14,50.6,64.64Z" />
            <path class="cls-2" d="M81.28,46.84v17.8H72.59V48.11c0-3.59-2.27-5.28-5-5.28-3.19,0-5.39,1.86-5.39,6V64.64h-8.7v-29h8.7v2.73c1.56-2.15,4.46-3.54,8.29-3.54C76.3,34.83,81.28,39,81.28,46.84Z" />
            <path class="cls-2" d="M116.66,35.64v29H108V61.91c-1.91,2.21-4.75,3.54-8.64,3.54-7.59,0-13.86-6.67-13.86-15.31s6.27-15.31,13.86-15.31c3.89,0,6.73,1.33,8.64,3.54V35.64ZM108,50.14c0-4.35-2.9-7.07-6.9-7.07s-6.9,2.72-6.9,7.07,2.9,7.08,6.9,7.08S108,54.49,108,50.14Z" />
            <path class="cls-2" d="M122.7,22.3h8.69V64.64H122.7Z" />
            <path class="cls-2" d="M167.18,35.64V63.19c0,9.74-7.6,13.86-15.31,13.86-6,0-11.08-2.26-13.75-7l7.43-4.29c1.1,2,2.78,3.66,6.61,3.66,4.06,0,6.55-2.09,6.55-6.21V60.52a10.3,10.3,0,0,1-8.47,3.77C142,64.29,136,57.56,136,49.56s6-14.73,14.26-14.73a10.3,10.3,0,0,1,8.47,3.77v-3Zm-8.47,13.92c0-4-2.9-6.73-7-6.73s-7,2.73-7,6.73,2.9,6.73,7,6.73S158.71,53.56,158.71,49.56Z" />
            <path class="cls-2" d="M187.94,57.68a7.6,7.6,0,0,0,5.57-2.2l7,4c-2.84,3.94-7.14,6-12.65,6-9.91,0-16.06-6.67-16.06-15.31S178,34.83,187.19,34.83c8.46,0,14.73,6.55,14.73,15.31a17,17,0,0,1-.35,3.48H181C182.08,56.64,184.75,57.68,187.94,57.68Zm5.34-10.55a6,6,0,0,0-6.15-4.59c-3.31,0-5.51,1.63-6.32,4.59Z" />
            <path class="cls-2" d="M220.94,57.68a7.6,7.6,0,0,0,5.57-2.2l7,4c-2.84,3.94-7.14,6-12.64,6-9.92,0-16.07-6.67-16.07-15.31S211,34.83,220.19,34.83c8.46,0,14.73,6.55,14.73,15.31a17,17,0,0,1-.35,3.48H214C215.08,56.64,217.75,57.68,220.94,57.68Zm5.34-10.55a6,6,0,0,0-6.15-4.59c-3.31,0-5.51,1.63-6.32,4.59Z" />
            <path class="cls-2" d="M239.5,22.3h8.7V64.64h-8.7Z" />
        </g>
    </g>
</svg>