<svg width="270" height="52" viewBox="0 0 270 52" fill="none" xmlns="http://www.w3.org/2000/svg">
    <path d="M27.2768 15.6771C26.7816 15.6036 26.275 15.5656 25.7596 15.5656C20.0501 15.5656 15.4216 20.2372 15.4216 26C15.4216 31.7628 20.0501 36.4344 25.7596 36.4344C31.4691 36.4344 36.0976 31.7628 36.0976 26C36.0976 25.3934 36.0463 24.799 35.9479 24.2207L33.3491 23.5179C29.5687 22.4955 27.3493 19.1464 27.2768 15.6771Z" fill="white"/>
    <path d="M25.7596 47.1788C36.9719 47.1788 46.1302 38.3025 46.7131 27.1322L51.4107 28.4027C50.2094 41.6357 39.1837 52 25.7596 52C11.533 52 0 40.3594 0 26C0 11.6406 11.533 0 25.7596 0C32.3112 0 38.2915 2.46864 42.8372 6.53461L46.4534 2.88471C47.5677 1.76 49.4704 2.27459 49.8783 3.81097L53.9281 19.066C54.3359 20.6024 52.943 22.0083 51.4209 21.5966L36.3069 17.509C34.7847 17.0974 34.2749 15.1769 35.3892 14.0522L39.4521 9.95137C35.7771 6.75423 30.992 4.82119 25.7596 4.82119C14.171 4.82119 4.77662 14.3033 4.77662 26C4.77662 37.6967 14.171 47.1788 25.7596 47.1788Z" fill="white"/>
    <path d="M83.0994 40.3123V22.0315C84.2733 20.255 87.4038 18.8797 89.7516 18.8797C90.5343 18.8797 91.2051 18.937 91.7082 19.0516V11.9456C88.3541 11.9456 85.0001 13.9513 83.0994 16.4155V12.6332H76V40.3123H83.0994Z" fill="white"/>
    <path d="M109.113 41C113.306 41 117.554 39.6819 120.237 37.1605L117.107 32.4613C115.374 34.1805 112.188 35.212 109.896 35.212C105.312 35.212 102.573 32.2894 102.125 28.7937H122.194V27.1891C122.194 18.1347 116.716 11.9456 108.666 11.9456C100.448 11.9456 94.6906 18.4212 94.6906 26.4441C94.6906 35.3266 100.896 41 109.113 41ZM115.318 23.8653H102.014C102.349 21.1146 104.25 17.7335 108.666 17.7335C113.362 17.7335 115.15 21.2292 115.318 23.8653Z" fill="white"/>
    <path d="M142.247 40.3123L153.092 12.6332H145.434L138.39 31.8883L131.347 12.6332H123.744L134.589 40.3123H142.247Z" fill="white"/>
    <path d="M160.063 9.65329C162.411 9.65329 164.311 7.70487 164.311 5.298C164.311 2.89112 162.411 1 160.063 1C157.771 1 155.814 2.89112 155.814 5.298C155.814 7.70487 157.771 9.65329 160.063 9.65329ZM163.641 40.3123V12.6332H156.541V40.3123H163.641Z" fill="white"/>
    <path d="M180.686 41C188.177 41 192.37 37.1605 192.37 32.1175C192.37 20.9427 176.382 24.3811 176.382 20.255C176.382 18.7077 178.059 17.5043 180.63 17.5043C183.929 17.5043 187.003 18.937 188.624 20.7135L191.475 15.7278C188.792 13.5501 185.158 11.9456 180.575 11.9456C173.475 11.9456 169.506 16.0143 169.506 20.6562C169.506 31.5444 185.55 27.8195 185.55 32.404C185.55 34.1232 184.096 35.384 181.022 35.384C177.668 35.384 173.643 33.4928 171.686 31.6017L168.612 36.702C171.463 39.3954 175.991 41 180.686 41Z" fill="white"/>
    <path d="M201.401 9.65329C203.749 9.65329 205.65 7.70487 205.65 5.298C205.65 2.89112 203.749 1 201.401 1C199.109 1 197.153 2.89112 197.153 5.298C197.153 7.70487 199.109 9.65329 201.401 9.65329ZM204.979 40.3123V12.6332H197.879V40.3123H204.979Z" fill="white"/>
    <path d="M224.82 41C233.764 41 239.13 34.3524 239.13 26.4441C239.13 18.5931 233.764 11.9456 224.82 11.9456C215.932 11.9456 210.565 18.5931 210.565 26.4441C210.565 34.3524 215.932 41 224.82 41ZM224.82 34.5244C220.404 34.5244 217.944 30.7994 217.944 26.4441C217.944 22.1461 220.404 18.4212 224.82 18.4212C229.236 18.4212 231.752 22.1461 231.752 26.4441C231.752 30.7994 229.236 34.5244 224.82 34.5244Z" fill="white"/>
    <path d="M270 40.3123V20.7708C270 15.384 267.149 11.9456 261.224 11.9456C256.807 11.9456 253.509 14.1232 251.776 16.2436V12.6332H244.677V40.3123H251.776V21.6877C252.95 20.0258 255.13 18.4212 257.925 18.4212C260.944 18.4212 262.901 19.7393 262.901 23.5788V40.3123H270Z" fill="white"/>
    </svg>
