<svg width="145" height="55" viewBox="0 0 145 55" fill="none" xmlns="http://www.w3.org/2000/svg">
    <path fill-rule="evenodd" clip-rule="evenodd" d="M88.0275 0H138.374C142.034 0 145 2.96638 145 6.6256C145 7.78863 144.694 8.93118 144.112 9.93839L120.47 50.888C118.641 54.0569 114.588 55.1427 111.419 53.3131C110.412 52.7316 109.576 51.8952 108.994 50.888L99.3543 34.1911C97.5247 31.0221 93.4726 29.9364 90.3036 31.766C89.2964 32.3475 88.46 33.1839 87.8785 34.1911L78.2385 50.888C76.4089 54.0569 72.3568 55.1427 69.1878 53.3131C68.1806 52.7316 67.3442 51.8952 66.7626 50.888L62.705 43.8599C61.5214 41.8099 61.5214 39.2843 62.705 37.2343L82.2896 3.3128C83.4731 1.26283 85.6604 0 88.0275 0ZM24.531 50.888L0.888768 9.93839C-0.94084 6.76942 0.144931 2.71727 3.3139 0.887662C4.32112 0.306144 5.46367 0 6.6267 0H53.9112C57.5704 0 60.5368 2.96638 60.5368 6.6256C60.5368 7.78863 60.2306 8.93118 59.6491 9.93839L36.0069 50.888C34.1773 54.0569 30.1251 55.1427 26.9562 53.3131C25.9489 52.7316 25.1125 51.8952 24.531 50.888Z" fill="white" />
</svg>
